<svg xmlns="http://www.w3.org/2000/svg" viewBox="0 0 5258.01 1294.7">
  <title>DuckburgLogo</title>
  <g id="Layer_2" data-name="Layer 2">
    <g id="Layer_1-2" data-name="Layer 1">
      <g>
        <path d="M267.26,423.09c3.15,13.31,20,79.41,80.45,129.42,47.78,39.52,99.15,49.43,129.42,54.8C738,653.54,895.9,681.52,1059,599.15c87-44,117.61-90.1,131.75-118.93,8.24-16.79,43.26-88.16,14-146.91-51.12-102.65-262.86-95.45-320.64-54.8-4.27,3-16.06,12.06-33.82,15.15-37.74,6.57-71.1-19.32-82.78-28C711,223.77,585.9,157.65,487.63,153.75c-30.15-1.2-116,1.14-174.9,64.13C239.21,296.47,264,409.22,267.26,423.09Z" fill="#52a2d8"/>
        <path d="M262.22,418.18c7-.18,9.92,2.8,11.6,10.09,10.34,45.08,34.66,81.79,69.18,112,3.13,2.75,4.11,6,4.11,9.86l-11.29,4.47c-52.17,18.24-90.8,54.93-127.54,94-28.12,29.93-52.08,63.24-79.46,96.17,3.12-38.3,4.82-76.79,10-114.8,2.32-17-1.25-21.17-17.44-20.85-39,.77-78,.25-121.4.25C71.25,518.52,155.28,452.78,262.22,418.18Z" fill="#1d1d1b"/>
        <path d="M466.64,604.59C490,604,516.81,613.84,539.71,617c57.76,8,115.48,11.26,173.31,6.06,44.3-4,88.73-3.84,133.06-6.66C900.13,613,953.89,606,1008,604.09c15.22-.55,32-9.6,48.37-7.3a1.85,1.85,0,0,1,.5,3.53l-.07,0a1,1,0,0,0-.63.9c-.33,25.39-2,48.42-.4,73.74,1.11,18-4.07,22.63-22.06,22.56-172.85-.69-345.71-.42-518.56-.42-44.08,0-44,0-44.12-44.74,0-12-.58-24.1-.9-36.15C470.68,612.55,466.12,608.28,466.64,604.59Z" fill="#1d1d1b"/>
        <path d="M513.41,829.88c-.47-23.83,32.81-49.51,59.59-57.52,29.1-8.71,57.41,1.39,60.63,2.59,10.27,3.81,12.83,6.87,25.91,14,21.29,11.59,38.85,16.72,60.11,22.8,162.64,46.51,181.21,44.2,194,41.13,104-25.06,145.38-102.69,145.38-102.69s166.59,51.3,239,23.21c34.72-13.47,180.34-95.86,213-42.49,9.06,14.82,5.86,35.79,3.11,46.12-30.28,113.54-256.91,303.54-495.93,274.65-47.16-5.7-116.31-26.22-173.6-77.21C750.23,890.51,514.3,875.26,513.41,829.88Z" fill="#f29123"/>
      </g>
      <text transform="translate(1676.57 540.87)" font-size="631.17" fill="#1d1d1b" font-family="OpenSans-ExtraBold, Open Sans" font-weight="800">DUCKBURG</text>
      <text transform="translate(1801.1 1113.56)" font-size="668.44" fill="#1d1d1b" font-family="OpenSans-Regular, Open Sans">JumbleSale</text>
    </g>
  </g>
</svg>
